#N canvas 303 77 381 331 10;
#N canvas 33 22 949 838 Timbre 0;
#X obj 276 178 vsl 25 75 0 1 0 0 empty empty empty 0 -9 0 10 -262144
-1 -1 0 1;
#X obj -176 346 dac~;
#N canvas 959 75 456 425 SMS 0;
#X obj -137 130 convert/ascii2pd CR;
#X obj -137 154 route list float symbol;
#X obj -45 211 send color;
#X floatatom -92 184 8 0 0 0 - - -;
#X obj -137 51 bng 15 250 50 0 empty empty empty 17 7 0 10 -262144
-1 -1;
#X msg -70 75 close;
#X obj -137 19 inlet;
#X obj -92 211 outlet;
#X msg -137 76 open 1;
#X obj -137 106 comport 1 115200;
#X connect 0 0 1 0;
#X connect 1 1 3 0;
#X connect 3 0 2 0;
#X connect 3 0 7 0;
#X connect 4 0 8 0;
#X connect 5 0 9 0;
#X connect 6 0 4 0;
#X connect 8 0 9 0;
#X connect 9 0 0 0;
#X restore 208 345 pd SMS;
#X obj 208 75 bng 15 250 50 0 empty empty empty 17 7 0 10 -262144 -1
-1;
#X obj -176 312 *~;
#X obj -134 277 limiter~;
#X obj -176 278 z~ 64;
#N canvas 0 22 450 278 (subpatch) 0;
#X array sound 100 float 5;
#A 0 0 0 0 0 0 0 0 0 0 0 0 0 0 0 0 0 0 0 0 0 0 0 0 0 0 0 0 0 0 0 0
0 0 0 0 0 0 0 0 0 0 0 0 0 0 0 0 0 0 0 0 0 0 0 0 0 0 0 0 0 0 0 0 0 0
0 0 0 0 0 0 0 0 0 0 0 0 0 0 0 0 0 0 0 0 0 0 0 0 0 0 0 0 0 0 0 0 0 0
0;
#X coords 0 1 99 -1 200 140 1 0 0;
#X restore 46 116 graph;
#X obj -176 245 *~;
#X obj 45 61 nbx 4 30 -1e+37 1e+37 0 0 empty empty empty 0 -8 0 20
-262144 -1 -1 0 256;
#N canvas 702 368 450 300 soundtable 0;
#X obj 90 169 metro 100;
#X obj 90 145 bng 15 250 50 0 empty empty empty 17 7 0 10 -262144 -1
-1;
#N canvas 255 58 491 596 on/off 0;
#X text -641 190 y-axis;
#X obj -866 117 route addCursor removeCursor updateCursor;
#X floatatom -651 207 5 0 0 0 - - -;
#X floatatom -616 207 5 0 0 0 - - -;
#X floatatom -568 207 5 0 0 0 - - -;
#X floatatom -532 208 5 0 0 0 - - -;
#X floatatom -478 208 5 0 0 0 - - -;
#X obj -704 143 unpack \$1 \$2 \$3 \$4 \$5 \$6 \$7;
#X text -690 191 x-axis;
#X text -576 187 x-speed;
#X text -530 190 y-speed;
#X text -482 190 accel;
#X obj -735 266 key;
#X floatatom -735 298 5 0 0 0 - - -;
#X obj -735 329 sel 122 120;
#X obj -606 308 bng 15 250 50 0 empty empty empty 17 7 0 10 -262144
-1 -1;
#X obj -651 267 bng 15 250 50 0 empty empty empty 17 7 0 10 -262144
-1 -1;
#X msg -651 329 0.5 0;
#X obj -651 232 +;
#X msg -606 329 0;
#X obj -651 443 change;
#X floatatom -651 466 5 0 0 0 - - -;
#X obj -651 356 > 0;
#X obj -606 282 del 500;
#X msg -704 358 0;
#X msg -735 357 1;
#X obj -651 382 * 1;
#X obj -651 411 tgl 15 0 empty empty empty 17 7 0 10 -262144 -1 -1
0 1;
#X obj -651 531 outlet;
#X obj -866 85 receive TuioClient;
#X connect 1 2 7 0;
#X connect 2 0 18 0;
#X connect 3 0 18 0;
#X connect 4 0 18 0;
#X connect 5 0 18 0;
#X connect 7 2 2 0;
#X connect 7 3 3 0;
#X connect 7 4 4 0;
#X connect 7 5 5 0;
#X connect 7 6 6 0;
#X connect 12 0 13 0;
#X connect 13 0 14 0;
#X connect 14 0 25 0;
#X connect 14 1 24 0;
#X connect 15 0 19 0;
#X connect 16 0 17 0;
#X connect 16 0 23 0;
#X connect 17 0 22 0;
#X connect 18 0 16 0;
#X connect 19 0 22 0;
#X connect 20 0 21 0;
#X connect 21 0 28 0;
#X connect 22 0 26 0;
#X connect 23 0 15 0;
#X connect 24 0 26 0;
#X connect 25 0 26 0;
#X connect 26 0 27 0;
#X connect 27 0 20 0;
#X connect 29 0 1 0;
#X restore 90 121 pd on/off;
#X obj 90 201 tabwrite~ sound;
#X obj 45 120 inlet~;
#X connect 0 0 3 0;
#X connect 1 0 0 0;
#X connect 2 0 1 0;
#X connect 4 0 3 0;
#X restore -268 279 pd soundtable;
#X text 269 156 volume;
#X text 155 79 balance;
#X text 166 70 white;
#X text 43 43 Timbre;
#X obj -176 104 osc~;
#N canvas 401 45 594 732 whitenoise 0;
#N canvas 586 471 625 399 noise 0;
#X obj 118 -424 noise~;
#X obj 220 -427 pink~;
#X obj 220 -399 *~ 0.5;
#X obj 118 -399 *~ 0.125;
#X msg 281 -458 0.5;
#X msg 193 -457 0.125;
#X msg 253 -458 0;
#X msg 163 -456 0;
#X obj 118 -330 outlet~;
#X obj 193 -479 bng 15 250 50 0 empty empty empty 17 7 0 10 -262144
-1 -1;
#X obj 163 -478 bng 15 250 50 0 empty empty empty 17 7 0 10 -262144
-1 -1;
#X obj 281 -480 bng 15 250 50 0 empty empty empty 17 7 0 10 -262144
-1 -1;
#X obj 253 -480 bng 15 250 50 0 empty empty empty 17 7 0 10 -262144
-1 -1;
#X obj 163 -571 inlet;
#X obj 163 -541 sel 1158;
#X connect 0 0 3 0;
#X connect 1 0 2 0;
#X connect 2 0 8 0;
#X connect 3 0 8 0;
#X connect 4 0 2 1;
#X connect 5 0 3 1;
#X connect 6 0 2 1;
#X connect 7 0 3 1;
#X connect 9 0 5 0;
#X connect 10 0 7 0;
#X connect 11 0 4 0;
#X connect 12 0 6 0;
#X connect 13 0 14 0;
#X connect 14 0 10 0;
#X connect 14 0 12 0;
#X connect 14 1 9 0;
#X connect 14 1 11 0;
#X restore 38 -78 pd noise;
#X obj 107 13 outlet~;
#X obj 155 -174 loadbang;
#X obj 51 -207 == 1568;
#X obj 86 -149 bng 15 250 50 0 empty empty empty 17 7 0 10 -262144
-1 -1;
#X obj 52 -149 bng 15 250 50 0 empty empty empty 17 7 0 10 -262144
-1 -1;
#X obj 53 -102 line~;
#X obj 52 -179 sel 0 1;
#X msg 52 -127 0 10;
#X msg 86 -127 1 10;
#X obj 38 -49 *~;
#X obj 155 -149 bng 15 250 50 0 empty empty empty 17 7 0 10 -262144
-1 -1;
#X obj 121 -149 bng 15 250 50 0 empty empty empty 17 7 0 10 -262144
-1 -1;
#X obj 122 -102 line~;
#X msg 121 -127 0 10;
#X msg 155 -127 1 10;
#X obj 107 -47 *~;
#X obj 51 -238 r white;
#X obj 118 -222 inlet;
#X obj 118 -202 sel 0 1;
#X obj 107 -324 inlet~;
#X connect 0 0 10 0;
#X connect 2 0 11 0;
#X connect 2 0 5 0;
#X connect 3 0 7 0;
#X connect 4 0 9 0;
#X connect 5 0 8 0;
#X connect 6 0 10 1;
#X connect 7 0 5 0;
#X connect 7 0 11 0;
#X connect 7 1 4 0;
#X connect 7 1 12 0;
#X connect 8 0 6 0;
#X connect 9 0 6 0;
#X connect 10 0 1 0;
#X connect 11 0 15 0;
#X connect 12 0 14 0;
#X connect 13 0 16 1;
#X connect 14 0 13 0;
#X connect 15 0 13 0;
#X connect 16 0 1 0;
#X connect 17 0 3 0;
#X connect 18 0 19 0;
#X connect 19 0 11 0;
#X connect 19 1 12 0;
#X connect 20 0 16 0;
#X restore -176 130 pd whitenoise;
#X text 117 76 hz;
#X connect 0 0 8 1;
#X connect 2 0 9 0;
#X connect 3 0 2 0;
#X connect 4 0 1 0;
#X connect 4 0 1 1;
#X connect 5 0 4 1;
#X connect 6 0 4 0;
#X connect 8 0 10 0;
#X connect 8 0 6 0;
#X connect 8 0 5 0;
#X connect 9 0 15 0;
#X connect 15 0 16 0;
#X connect 16 0 8 0;
#X coords 0 0 1 1 350 300 1 0 0;
#X restore -352 -2018 pd Timbre;
#X coords 0 331 1 330 85 60 0;
